<svg width="922" height="91" viewBox="0 0 922 91" fill="none" xmlns="http://www.w3.org/2000/svg">
<path d="M0.590909 15.4545L21.5909 15.4545L21.5909 70H40.2727L40.2727 15.4545H61.2727V0.181816L0.590909 0.181816L0.590909 15.4545ZM68.4062 70H118.588V54.7273H87.3608V42.7273H116.134V27.4545L87.3608 27.4545L87.3608 15.4545L118.724 15.4545V0.181816L68.4062 0.181816L68.4062 70ZM154.989 70C176.261 70 189.761 56.9091 189.761 35.0909C189.761 13.2727 176.261 0.181816 154.716 0.181816L128.125 0.181816L128.125 70L154.989 70ZM147.08 53.9091V16.2727L153.761 16.2727C164.67 16.2727 170.67 20.5 170.67 35.0909C170.67 49.6818 164.67 53.9091 154.307 53.9091H147.08ZM215.031 17.6364L196.213 17.6364L210.122 43.8182L195.259 70H214.077L222.668 53.3636L231.531 70H250.077L235.349 43.8182L249.395 17.6364L230.713 17.6364L222.668 33.8636L215.031 17.6364Z" fill="#FF0000"/>
<path d="M293.892 0.181816H274.938V70H293.892V0.181816ZM321.83 0.181816L302.875 0.181816V70L321.83 70V0.181816ZM328.903 15.4545L349.903 15.4545V70H368.585V15.4545L389.585 15.4545V0.181816L328.903 0.181816V15.4545ZM415.844 70H434.798V52L441.071 43.8182L456.753 70H479.389L455.253 31.2727L478.844 0.181816L456.753 0.181816L435.753 28.4091H434.798V0.181816L415.844 0.181816V70ZM503.56 40.5455C503.594 35.3636 506.594 32.2273 511.196 32.2273C516.003 32.2273 518.73 35.3636 518.696 40.5455V70H537.514V36.5909C537.548 25.1364 530.321 16.9545 519.241 16.9545C511.503 16.9545 505.776 20.9091 503.423 27.5909H502.878V0.181816L484.741 0.181816V70H503.56V40.5455ZM561.395 70.8182C568.213 70.8182 573.361 68.5 576.531 62.6364H576.94V70H594.531V34.1364C594.531 24.4545 585.361 16.9545 570.395 16.9545C554.747 16.9545 547.043 25.1364 546.395 34.6818L563.713 34.6818C564.156 31.4432 566.543 29.9091 570.122 29.9091C573.395 29.9091 575.713 31.4091 575.713 34.1364V34.2727C575.713 37.3068 572.372 38.2614 563.577 38.9091C552.77 39.6932 544.349 44.0568 544.349 55.5455C544.349 65.9773 551.372 70.8182 561.395 70.8182ZM567.531 58.9545C564.327 58.9545 562.077 57.3864 562.077 54.4545C562.077 51.7614 563.986 49.6818 568.349 49C571.349 48.5227 573.872 47.9091 575.849 47.0909V51.4545C575.849 56.2273 571.793 58.9545 567.531 58.9545ZM603.523 70H622.341V42.7273C622.341 36.7273 626.466 32.7727 632.023 32.7727C633.966 32.7727 637.102 33.0795 638.977 33.7273V17.6705C637.477 17.2273 635.841 16.9545 634.205 16.9545C628.614 16.9545 624.25 20.2273 622.341 27.5909H621.795V17.6364H603.523V70ZM657.301 70.8182C664.119 70.8182 669.267 68.5 672.438 62.6364H672.847V70H690.438V34.1364C690.438 24.4545 681.267 16.9545 666.301 16.9545C650.653 16.9545 642.949 25.1364 642.301 34.6818H659.619C660.062 31.4432 662.449 29.9091 666.028 29.9091C669.301 29.9091 671.619 31.4091 671.619 34.1364V34.2727C671.619 37.3068 668.278 38.2614 659.483 38.9091C648.676 39.6932 640.256 44.0568 640.256 55.5455C640.256 65.9773 647.278 70.8182 657.301 70.8182ZM663.438 58.9545C660.233 58.9545 657.983 57.3864 657.983 54.4545C657.983 51.7614 659.892 49.6818 664.256 49C667.256 48.5227 669.778 47.9091 671.756 47.0909V51.4545C671.756 56.2273 667.699 58.9545 663.438 58.9545ZM724.656 90.7273C741.224 90.7273 752.202 83.1591 752.202 69.8636V17.6364H733.384V26.7727H732.974C730.929 21.4545 726.02 16.9545 718.247 16.9545C707.884 16.9545 697.793 24.8636 697.793 43.8182C697.793 61.9545 707.202 69.3182 718.384 69.3182C725.474 69.3182 731.065 66.3182 733.111 61H733.656V69.8636C733.656 76.0341 730.077 78.0455 725.202 78.0455C720.872 78.0455 717.702 76.75 717.156 73.4091H699.02C699.736 83.5 708.906 90.7273 724.656 90.7273ZM725.338 55.9545C720.156 55.9545 717.156 51.5909 717.156 43.8182C717.156 36.0455 720.156 31.4091 725.338 31.4091C730.52 31.4091 733.656 36.0455 733.656 43.8182C733.656 51.4545 730.52 55.9545 725.338 55.9545ZM761.773 89.6364H780.591V61.4091H780.864C783.045 66.7273 788.091 70.6818 795.455 70.6818C806.636 70.6818 816.045 61.9545 816.045 43.8182C816.045 24.8636 805.955 16.9545 795.591 16.9545C787.818 16.9545 782.909 21.4545 780.864 26.7727H780.455V17.6364L761.773 17.6364V89.6364ZM780.182 43.8182C780.182 36.0455 783.318 31.4091 788.5 31.4091C793.682 31.4091 796.682 36.0455 796.682 43.8182C796.682 51.5909 793.682 56.2273 788.5 56.2273C783.318 56.2273 780.182 51.4545 780.182 43.8182ZM857.884 47.0909C857.918 52.2727 854.918 55.4091 850.247 55.4091C845.509 55.4091 842.781 52.2727 842.747 47.0909V17.6364H823.929V51.0455C823.963 62.5 831.19 70.6818 842.202 70.6818C850.009 70.6818 856.009 66.7273 858.293 60.0455H858.838V70H876.702V17.6364L857.884 17.6364V47.0909ZM886.273 70H905.091V42.7273C905.091 36.7273 909.216 32.7727 914.773 32.7727C916.716 32.7727 919.852 33.0795 921.727 33.7273V17.6705C920.227 17.2273 918.591 16.9545 916.955 16.9545C911.364 16.9545 907 20.2273 905.091 27.5909H904.545V17.6364L886.273 17.6364V70Z" fill="white"/>
</svg>
