<svg width="740" height="250" viewBox="0 0 740 250" fill="none" xmlns="http://www.w3.org/2000/svg">
<path d="M52.224 38.992V49.84H34.368V106H20.928V49.84H3.072V38.992H52.224ZM75.4703 49.84V66.64H98.0303V77.296H75.4703V95.056H100.91V106H62.0303V38.896H100.91V49.84H75.4703ZM136.548 38.992C143.588 38.992 149.764 40.368 155.076 43.12C160.452 45.872 164.58 49.808 167.46 54.928C170.404 59.984 171.876 65.872 171.876 72.592C171.876 79.312 170.404 85.2 167.46 90.256C164.58 95.248 160.452 99.12 155.076 101.872C149.764 104.624 143.588 106 136.548 106H113.124V38.992H136.548ZM136.068 94.576C143.108 94.576 148.548 92.656 152.388 88.816C156.228 84.976 158.148 79.568 158.148 72.592C158.148 65.616 156.228 60.176 152.388 56.272C148.548 52.304 143.108 50.32 136.068 50.32H126.564V94.576H136.068ZM211.313 106L200.369 89.488L190.673 106H176.273L193.649 79.312L176.081 52.816H191.249L202.097 69.232L211.889 52.816H226.289L208.817 79.312L226.481 106H211.313Z" fill="#FF0000"/>
<path d="M31.064 144.992V212H17.624V144.992H31.064ZM57.7828 144.992V212H44.3428V144.992H57.7828ZM116.662 144.992V155.84H98.8055V212H85.3655V155.84H67.5095V144.992H116.662ZM187.167 212L162.783 182.144V212H149.343V144.992H162.783V175.04L187.167 144.992H203.391L175.743 178.208L204.159 212H187.167ZM242.951 158.048C246.983 158.048 250.567 158.944 253.703 160.736C256.839 162.464 259.271 165.056 260.999 168.512C262.791 171.904 263.687 176 263.687 180.8V212H250.247V182.624C250.247 178.4 249.191 175.168 247.079 172.928C244.967 170.624 242.087 169.472 238.439 169.472C234.727 169.472 231.783 170.624 229.607 172.928C227.495 175.168 226.439 178.4 226.439 182.624V212H212.999V140.96H226.439V165.44C228.167 163.136 230.471 161.344 233.351 160.064C236.231 158.72 239.431 158.048 242.951 158.048ZM273.012 185.216C273.012 179.84 274.068 175.072 276.18 170.912C278.356 166.752 281.268 163.552 284.916 161.312C288.628 159.072 292.756 157.952 297.3 157.952C301.268 157.952 304.724 158.752 307.668 160.352C310.676 161.952 313.076 163.968 314.868 166.4V158.816H328.404V212H314.868V204.224C313.14 206.72 310.74 208.8 307.668 210.464C304.66 212.064 301.172 212.864 297.204 212.864C292.724 212.864 288.628 211.712 284.916 209.408C281.268 207.104 278.356 203.872 276.18 199.712C274.068 195.488 273.012 190.656 273.012 185.216ZM314.868 185.408C314.868 182.144 314.228 179.36 312.948 177.056C311.668 174.688 309.94 172.896 307.764 171.68C305.588 170.4 303.252 169.76 300.756 169.76C298.26 169.76 295.956 170.368 293.844 171.584C291.732 172.8 290.004 174.592 288.66 176.96C287.38 179.264 286.74 182.016 286.74 185.216C286.74 188.416 287.38 191.232 288.66 193.664C290.004 196.032 291.732 197.856 293.844 199.136C296.02 200.416 298.324 201.056 300.756 201.056C303.252 201.056 305.588 200.448 307.764 199.232C309.94 197.952 311.668 196.16 312.948 193.856C314.228 191.488 314.868 188.672 314.868 185.408ZM354.97 167.072C356.698 164.256 358.938 162.048 361.69 160.448C364.506 158.848 367.706 158.048 371.29 158.048V172.16H367.738C363.514 172.16 360.314 173.152 358.138 175.136C356.026 177.12 354.97 180.576 354.97 185.504V212H341.53V158.816H354.97V167.072ZM376.887 185.216C376.887 179.84 377.943 175.072 380.055 170.912C382.231 166.752 385.143 163.552 388.791 161.312C392.503 159.072 396.631 157.952 401.175 157.952C405.143 157.952 408.599 158.752 411.543 160.352C414.551 161.952 416.951 163.968 418.743 166.4V158.816H432.279V212H418.743V204.224C417.015 206.72 414.615 208.8 411.543 210.464C408.535 212.064 405.047 212.864 401.079 212.864C396.599 212.864 392.503 211.712 388.791 209.408C385.143 207.104 382.231 203.872 380.055 199.712C377.943 195.488 376.887 190.656 376.887 185.216ZM418.743 185.408C418.743 182.144 418.103 179.36 416.823 177.056C415.543 174.688 413.815 172.896 411.639 171.68C409.463 170.4 407.127 169.76 404.631 169.76C402.135 169.76 399.831 170.368 397.719 171.584C395.607 172.8 393.879 174.592 392.535 176.96C391.255 179.264 390.615 182.016 390.615 185.216C390.615 188.416 391.255 191.232 392.535 193.664C393.879 196.032 395.607 197.856 397.719 199.136C399.895 200.416 402.199 201.056 404.631 201.056C407.127 201.056 409.463 200.448 411.639 199.232C413.815 197.952 415.543 196.16 416.823 193.856C418.103 191.488 418.743 188.672 418.743 185.408ZM466.237 157.952C470.205 157.952 473.693 158.752 476.701 160.352C479.709 161.888 482.077 163.904 483.805 166.4V158.816H497.341V212.384C497.341 217.312 496.349 221.696 494.365 225.536C492.381 229.44 489.405 232.512 485.437 234.752C481.469 237.056 476.669 238.208 471.037 238.208C463.485 238.208 457.277 236.448 452.413 232.928C447.613 229.408 444.893 224.608 444.253 218.528H457.597C458.301 220.96 459.805 222.88 462.109 224.288C464.477 225.76 467.325 226.496 470.653 226.496C474.557 226.496 477.725 225.312 480.157 222.944C482.589 220.64 483.805 217.12 483.805 212.384V204.128C482.077 206.624 479.677 208.704 476.605 210.368C473.597 212.032 470.141 212.864 466.237 212.864C461.757 212.864 457.661 211.712 453.949 209.408C450.237 207.104 447.293 203.872 445.117 199.712C443.005 195.488 441.949 190.656 441.949 185.216C441.949 179.84 443.005 175.072 445.117 170.912C447.293 166.752 450.205 163.552 453.853 161.312C457.565 159.072 461.693 157.952 466.237 157.952ZM483.805 185.408C483.805 182.144 483.165 179.36 481.885 177.056C480.605 174.688 478.877 172.896 476.701 171.68C474.525 170.4 472.189 169.76 469.693 169.76C467.197 169.76 464.893 170.368 462.781 171.584C460.669 172.8 458.941 174.592 457.597 176.96C456.317 179.264 455.677 182.016 455.677 185.216C455.677 188.416 456.317 191.232 457.597 193.664C458.941 196.032 460.669 197.856 462.781 199.136C464.957 200.416 467.261 201.056 469.693 201.056C472.189 201.056 474.525 200.448 476.701 199.232C478.877 197.952 480.605 196.16 481.885 193.856C483.165 191.488 483.805 188.672 483.805 185.408ZM523.908 166.496C525.636 164.064 528.004 162.048 531.012 160.448C534.084 158.784 537.572 157.952 541.476 157.952C546.02 157.952 550.116 159.072 553.764 161.312C557.476 163.552 560.388 166.752 562.5 170.912C564.676 175.008 565.764 179.776 565.764 185.216C565.764 190.656 564.676 195.488 562.5 199.712C560.388 203.872 557.476 207.104 553.764 209.408C550.116 211.712 546.02 212.864 541.476 212.864C537.572 212.864 534.116 212.064 531.108 210.464C528.164 208.864 525.764 206.848 523.908 204.416V237.344H510.468V158.816H523.908V166.496ZM552.036 185.216C552.036 182.016 551.364 179.264 550.02 176.96C548.74 174.592 547.012 172.8 544.836 171.584C542.724 170.368 540.42 169.76 537.924 169.76C535.492 169.76 533.188 170.4 531.012 171.68C528.9 172.896 527.172 174.688 525.828 177.056C524.548 179.424 523.908 182.208 523.908 185.408C523.908 188.608 524.548 191.392 525.828 193.76C527.172 196.128 528.9 197.952 531.012 199.232C533.188 200.448 535.492 201.056 537.924 201.056C540.42 201.056 542.724 200.416 544.836 199.136C547.012 197.856 548.74 196.032 550.02 193.664C551.364 191.296 552.036 188.48 552.036 185.216ZM625.738 158.816V212H612.202V205.28C610.474 207.584 608.202 209.408 605.386 210.752C602.634 212.032 599.626 212.672 596.362 212.672C592.202 212.672 588.522 211.808 585.322 210.08C582.122 208.288 579.594 205.696 577.738 202.304C575.946 198.848 575.05 194.752 575.05 190.016V158.816H588.49V188.096C588.49 192.32 589.546 195.584 591.658 197.888C593.77 200.128 596.65 201.248 600.298 201.248C604.01 201.248 606.922 200.128 609.034 197.888C611.146 195.584 612.202 192.32 612.202 188.096V158.816H625.738ZM652.439 167.072C654.167 164.256 656.407 162.048 659.159 160.448C661.975 158.848 665.175 158.048 668.759 158.048V172.16H665.207C660.983 172.16 657.783 173.152 655.607 175.136C653.495 177.12 652.439 180.576 652.439 185.504V212H638.999V158.816H652.439V167.072Z" fill="white"/>
</svg>
