<svg width="331" height="307" viewBox="0 0 331 307" fill="none" xmlns="http://www.w3.org/2000/svg">
<path d="M152.417 143.917H178.583H152.417ZM119.708 58.875C119.708 46.7303 124.533 35.083 133.12 26.4954C141.708 17.9078 153.355 13.0833 165.5 13.0833C177.645 13.0833 189.292 17.9078 197.88 26.4954C206.467 35.083 211.292 46.7303 211.292 58.875C211.296 66.2479 209.513 73.512 206.095 80.0448C202.677 86.5777 197.726 92.1845 191.667 96.3849L188.121 113.171C187.652 116.265 186.089 119.088 183.716 121.128C181.343 123.169 178.318 124.291 175.188 124.292H155.812C152.682 124.291 149.657 123.169 147.284 121.128C144.911 119.088 143.348 116.265 142.879 113.171L139.333 96.4569C133.272 92.2416 128.321 86.6216 124.903 80.0771C121.486 73.5326 119.703 66.2581 119.708 58.875V58.875Z" stroke="white" stroke-width="2" stroke-linecap="round" stroke-linejoin="round"/>
<path d="M139.333 98.125H191.667" stroke="white" stroke-width="2" stroke-linecap="round" stroke-linejoin="round"/>
<path d="M132.112 182.496V187.92H123.184V216H116.464V187.92H107.536V182.496H132.112ZM143.735 187.92V196.32H155.015V201.648H143.735V210.528H156.455V216H137.015V182.448H156.455V187.92H143.735ZM174.274 182.496C177.794 182.496 180.882 183.184 183.538 184.56C186.226 185.936 188.29 187.904 189.73 190.464C191.202 192.992 191.938 195.936 191.938 199.296C191.938 202.656 191.202 205.6 189.73 208.128C188.29 210.624 186.226 212.56 183.538 213.936C180.882 215.312 177.794 216 174.274 216H162.562V182.496H174.274ZM174.034 210.288C177.554 210.288 180.274 209.328 182.194 207.408C184.114 205.488 185.074 202.784 185.074 199.296C185.074 195.808 184.114 193.088 182.194 191.136C180.274 189.152 177.554 188.16 174.034 188.16H169.282V210.288H174.034ZM211.656 216L206.184 207.744L201.336 216H194.136L202.824 202.656L194.04 189.408H201.624L207.048 197.616L211.944 189.408H219.144L210.408 202.656L219.24 216H211.656Z" fill="#FF0000"/>
<path d="M10.032 254.496V288H3.312V254.496H10.032ZM23.3914 254.496V288H16.6714V254.496H23.3914ZM52.8308 254.496V259.92H43.9028V288H37.1828V259.92H28.2548V254.496H52.8308ZM88.0834 288L75.8914 273.072V288H69.1714V254.496H75.8914V269.52L88.0834 254.496H96.1954L82.3714 271.104L96.5794 288H88.0834ZM115.976 261.024C117.992 261.024 119.784 261.472 121.352 262.368C122.92 263.232 124.136 264.528 125 266.256C125.896 267.952 126.344 270 126.344 272.4V288H119.624V273.312C119.624 271.2 119.096 269.584 118.04 268.464C116.984 267.312 115.544 266.736 113.72 266.736C111.864 266.736 110.392 267.312 109.304 268.464C108.248 269.584 107.72 271.2 107.72 273.312V288H101V252.48H107.72V264.72C108.584 263.568 109.736 262.672 111.176 262.032C112.616 261.36 114.216 261.024 115.976 261.024ZM131.006 274.608C131.006 271.92 131.534 269.536 132.59 267.456C133.678 265.376 135.134 263.776 136.958 262.656C138.814 261.536 140.878 260.976 143.15 260.976C145.134 260.976 146.862 261.376 148.334 262.176C149.838 262.976 151.038 263.984 151.934 265.2V261.408H158.702V288H151.934V284.112C151.07 285.36 149.87 286.4 148.334 287.232C146.83 288.032 145.086 288.432 143.102 288.432C140.862 288.432 138.814 287.856 136.958 286.704C135.134 285.552 133.678 283.936 132.59 281.856C131.534 279.744 131.006 277.328 131.006 274.608ZM151.934 274.704C151.934 273.072 151.614 271.68 150.974 270.528C150.334 269.344 149.47 268.448 148.382 267.84C147.294 267.2 146.126 266.88 144.878 266.88C143.63 266.88 142.478 267.184 141.422 267.792C140.366 268.4 139.502 269.296 138.83 270.48C138.19 271.632 137.87 273.008 137.87 274.608C137.87 276.208 138.19 277.616 138.83 278.832C139.502 280.016 140.366 280.928 141.422 281.568C142.51 282.208 143.662 282.528 144.878 282.528C146.126 282.528 147.294 282.224 148.382 281.616C149.47 280.976 150.334 280.08 150.974 278.928C151.614 277.744 151.934 276.336 151.934 274.704ZM171.985 265.536C172.849 264.128 173.969 263.024 175.345 262.224C176.753 261.424 178.353 261.024 180.145 261.024V268.08H178.369C176.257 268.08 174.657 268.576 173.569 269.568C172.513 270.56 171.985 272.288 171.985 274.752V288H165.265V261.408H171.985V265.536ZM182.943 274.608C182.943 271.92 183.471 269.536 184.527 267.456C185.615 265.376 187.071 263.776 188.895 262.656C190.751 261.536 192.815 260.976 195.087 260.976C197.071 260.976 198.799 261.376 200.271 262.176C201.775 262.976 202.975 263.984 203.871 265.2V261.408H210.639V288H203.871V284.112C203.007 285.36 201.807 286.4 200.271 287.232C198.767 288.032 197.023 288.432 195.039 288.432C192.799 288.432 190.751 287.856 188.895 286.704C187.071 285.552 185.615 283.936 184.527 281.856C183.471 279.744 182.943 277.328 182.943 274.608ZM203.871 274.704C203.871 273.072 203.551 271.68 202.911 270.528C202.271 269.344 201.407 268.448 200.319 267.84C199.231 267.2 198.063 266.88 196.815 266.88C195.567 266.88 194.415 267.184 193.359 267.792C192.303 268.4 191.439 269.296 190.767 270.48C190.127 271.632 189.807 273.008 189.807 274.608C189.807 276.208 190.127 277.616 190.767 278.832C191.439 280.016 192.303 280.928 193.359 281.568C194.447 282.208 195.599 282.528 196.815 282.528C198.063 282.528 199.231 282.224 200.319 281.616C201.407 280.976 202.271 280.08 202.911 278.928C203.551 277.744 203.871 276.336 203.871 274.704ZM227.619 260.976C229.603 260.976 231.347 261.376 232.851 262.176C234.355 262.944 235.539 263.952 236.403 265.2V261.408H243.171V288.192C243.171 290.656 242.675 292.848 241.683 294.768C240.691 296.72 239.203 298.256 237.219 299.376C235.235 300.528 232.835 301.104 230.019 301.104C226.243 301.104 223.139 300.224 220.707 298.464C218.307 296.704 216.947 294.304 216.627 291.264H223.299C223.651 292.48 224.403 293.44 225.555 294.144C226.739 294.88 228.163 295.248 229.827 295.248C231.779 295.248 233.363 294.656 234.579 293.472C235.795 292.32 236.403 290.56 236.403 288.192V284.064C235.539 285.312 234.339 286.352 232.803 287.184C231.299 288.016 229.571 288.432 227.619 288.432C225.379 288.432 223.331 287.856 221.475 286.704C219.619 285.552 218.147 283.936 217.059 281.856C216.003 279.744 215.475 277.328 215.475 274.608C215.475 271.92 216.003 269.536 217.059 267.456C218.147 265.376 219.603 263.776 221.427 262.656C223.283 261.536 225.347 260.976 227.619 260.976ZM236.403 274.704C236.403 273.072 236.083 271.68 235.443 270.528C234.803 269.344 233.939 268.448 232.851 267.84C231.763 267.2 230.595 266.88 229.347 266.88C228.099 266.88 226.947 267.184 225.891 267.792C224.835 268.4 223.971 269.296 223.299 270.48C222.659 271.632 222.339 273.008 222.339 274.608C222.339 276.208 222.659 277.616 223.299 278.832C223.971 280.016 224.835 280.928 225.891 281.568C226.979 282.208 228.131 282.528 229.347 282.528C230.595 282.528 231.763 282.224 232.851 281.616C233.939 280.976 234.803 280.08 235.443 278.928C236.083 277.744 236.403 276.336 236.403 274.704ZM256.454 265.248C257.318 264.032 258.502 263.024 260.006 262.224C261.542 261.392 263.286 260.976 265.238 260.976C267.51 260.976 269.558 261.536 271.382 262.656C273.238 263.776 274.694 265.376 275.75 267.456C276.838 269.504 277.382 271.888 277.382 274.608C277.382 277.328 276.838 279.744 275.75 281.856C274.694 283.936 273.238 285.552 271.382 286.704C269.558 287.856 267.51 288.432 265.238 288.432C263.286 288.432 261.558 288.032 260.054 287.232C258.582 286.432 257.382 285.424 256.454 284.208V300.672H249.734V261.408H256.454V265.248ZM270.518 274.608C270.518 273.008 270.182 271.632 269.51 270.48C268.87 269.296 268.006 268.4 266.918 267.792C265.862 267.184 264.71 266.88 263.462 266.88C262.246 266.88 261.094 267.2 260.006 267.84C258.95 268.448 258.086 269.344 257.414 270.528C256.774 271.712 256.454 273.104 256.454 274.704C256.454 276.304 256.774 277.696 257.414 278.88C258.086 280.064 258.95 280.976 260.006 281.616C261.094 282.224 262.246 282.528 263.462 282.528C264.71 282.528 265.862 282.208 266.918 281.568C268.006 280.928 268.87 280.016 269.51 278.832C270.182 277.648 270.518 276.24 270.518 274.608ZM307.369 261.408V288H300.601V284.64C299.737 285.792 298.601 286.704 297.193 287.376C295.817 288.016 294.313 288.336 292.681 288.336C290.601 288.336 288.761 287.904 287.161 287.04C285.561 286.144 284.297 284.848 283.369 283.152C282.473 281.424 282.025 279.376 282.025 277.008V261.408H288.745V276.048C288.745 278.16 289.273 279.792 290.329 280.944C291.385 282.064 292.825 282.624 294.649 282.624C296.505 282.624 297.961 282.064 299.017 280.944C300.073 279.792 300.601 278.16 300.601 276.048V261.408H307.369ZM320.72 265.536C321.584 264.128 322.704 263.024 324.08 262.224C325.488 261.424 327.088 261.024 328.88 261.024V268.08H327.104C324.992 268.08 323.392 268.576 322.304 269.568C321.248 270.56 320.72 272.288 320.72 274.752V288H314V261.408H320.72V265.536Z" fill="#FF0000"/>
</svg>
