<svg width="1005" height="283" viewBox="0 0 1005 283" fill="none" xmlns="http://www.w3.org/2000/svg">
<path d="M55.66 162.33V170.47H34.76V239H24.75V170.47H3.74V162.33H55.66ZM77.9917 170.47V196.1H105.932V204.35H77.9917V230.75H109.232V239H67.9817V162.22H109.232V170.47H77.9917ZM148.248 162.33C156.608 162.33 163.832 163.907 169.918 167.06C176.078 170.14 180.772 174.577 183.998 180.37C187.298 186.163 188.948 192.983 188.948 200.83C188.948 208.677 187.298 215.497 183.998 221.29C180.772 227.01 176.078 231.41 169.918 234.49C163.832 237.497 156.608 239 148.248 239H124.378V162.33H148.248ZM148.248 230.75C158.148 230.75 165.702 228.147 170.908 222.94C176.115 217.66 178.718 210.29 178.718 200.83C178.718 191.297 176.078 183.853 170.798 178.5C165.592 173.147 158.075 170.47 148.248 170.47H134.388V230.75H148.248ZM233.612 239L219.312 216.56L205.562 239H195.112L214.582 209.08L195.112 178.72H206.442L220.742 201.05L234.382 178.72H244.832L225.472 208.53L244.942 239H233.612ZM294.125 162.33V239H284.115V162.33H294.125ZM321.195 162.33V239H311.185V162.33H321.195ZM385.445 162.33V170.47H364.545V239H354.535V170.47H333.525V162.33H385.445ZM468.673 239L437.103 204.02V239H427.093V162.33H437.103V197.86L468.783 162.33H481.433L446.673 200.72L481.763 239H468.673ZM522.863 177.62C527.409 177.62 531.516 178.61 535.183 180.59C538.849 182.497 541.709 185.393 543.763 189.28C545.889 193.167 546.953 197.897 546.953 203.47V239H537.053V204.9C537.053 198.887 535.549 194.303 532.543 191.15C529.536 187.923 525.429 186.31 520.223 186.31C514.943 186.31 510.726 187.96 507.573 191.26C504.493 194.56 502.953 199.363 502.953 205.67V239H492.943V157.6H502.953V187.3C504.933 184.22 507.646 181.837 511.093 180.15C514.613 178.463 518.536 177.62 522.863 177.62ZM559.564 208.64C559.564 202.48 560.811 197.09 563.304 192.47C565.797 187.777 569.207 184.147 573.534 181.58C577.934 179.013 582.811 177.73 588.164 177.73C593.444 177.73 598.027 178.867 601.914 181.14C605.801 183.413 608.697 186.273 610.604 189.72V178.72H620.724V239H610.604V227.78C608.624 231.3 605.654 234.233 601.694 236.58C597.807 238.853 593.261 239.99 588.054 239.99C582.701 239.99 577.861 238.67 573.534 236.03C569.207 233.39 565.797 229.687 563.304 224.92C560.811 220.153 559.564 214.727 559.564 208.64ZM610.604 208.75C610.604 204.203 609.687 200.243 607.854 196.87C606.021 193.497 603.527 190.93 600.374 189.17C597.294 187.337 593.884 186.42 590.144 186.42C586.404 186.42 582.994 187.3 579.914 189.06C576.834 190.82 574.377 193.387 572.544 196.76C570.711 200.133 569.794 204.093 569.794 208.64C569.794 213.26 570.711 217.293 572.544 220.74C574.377 224.113 576.834 226.717 579.914 228.55C582.994 230.31 586.404 231.19 590.144 231.19C593.884 231.19 597.294 230.31 600.374 228.55C603.527 226.717 606.021 224.113 607.854 220.74C609.687 217.293 610.604 213.297 610.604 208.75ZM647.65 188.51C649.41 185.063 651.903 182.387 655.13 180.48C658.43 178.573 662.427 177.62 667.12 177.62V187.96H664.48C653.26 187.96 647.65 194.047 647.65 206.22V239H637.64V178.72H647.65V188.51ZM674.935 208.64C674.935 202.48 676.182 197.09 678.675 192.47C681.168 187.777 684.578 184.147 688.905 181.58C693.305 179.013 698.182 177.73 703.535 177.73C708.815 177.73 713.398 178.867 717.285 181.14C721.172 183.413 724.068 186.273 725.975 189.72V178.72H736.095V239H725.975V227.78C723.995 231.3 721.025 234.233 717.065 236.58C713.178 238.853 708.632 239.99 703.425 239.99C698.072 239.99 693.232 238.67 688.905 236.03C684.578 233.39 681.168 229.687 678.675 224.92C676.182 220.153 674.935 214.727 674.935 208.64ZM725.975 208.75C725.975 204.203 725.058 200.243 723.225 196.87C721.392 193.497 718.898 190.93 715.745 189.17C712.665 187.337 709.255 186.42 705.515 186.42C701.775 186.42 698.365 187.3 695.285 189.06C692.205 190.82 689.748 193.387 687.915 196.76C686.082 200.133 685.165 204.093 685.165 208.64C685.165 213.26 686.082 217.293 687.915 220.74C689.748 224.113 692.205 226.717 695.285 228.55C698.365 230.31 701.775 231.19 705.515 231.19C709.255 231.19 712.665 230.31 715.745 228.55C718.898 226.717 721.392 224.113 723.225 220.74C725.058 217.293 725.975 213.297 725.975 208.75ZM777.871 177.73C783.078 177.73 787.624 178.867 791.511 181.14C795.471 183.413 798.404 186.273 800.311 189.72V178.72H810.431V240.32C810.431 245.82 809.258 250.697 806.911 254.95C804.564 259.277 801.191 262.65 796.791 265.07C792.464 267.49 787.404 268.7 781.611 268.7C773.691 268.7 767.091 266.83 761.811 263.09C756.531 259.35 753.414 254.253 752.461 247.8H762.361C763.461 251.467 765.734 254.4 769.181 256.6C772.628 258.873 776.771 260.01 781.611 260.01C787.111 260.01 791.584 258.287 795.031 254.84C798.551 251.393 800.311 246.553 800.311 240.32V227.67C798.331 231.19 795.398 234.123 791.511 236.47C787.624 238.817 783.078 239.99 777.871 239.99C772.518 239.99 767.641 238.67 763.241 236.03C758.914 233.39 755.504 229.687 753.011 224.92C750.518 220.153 749.271 214.727 749.271 208.64C749.271 202.48 750.518 197.09 753.011 192.47C755.504 187.777 758.914 184.147 763.241 181.58C767.641 179.013 772.518 177.73 777.871 177.73ZM800.311 208.75C800.311 204.203 799.394 200.243 797.561 196.87C795.728 193.497 793.234 190.93 790.081 189.17C787.001 187.337 783.591 186.42 779.851 186.42C776.111 186.42 772.701 187.3 769.621 189.06C766.541 190.82 764.084 193.387 762.251 196.76C760.418 200.133 759.501 204.093 759.501 208.64C759.501 213.26 760.418 217.293 762.251 220.74C764.084 224.113 766.541 226.717 769.621 228.55C772.701 230.31 776.111 231.19 779.851 231.19C783.591 231.19 787.001 230.31 790.081 228.55C793.234 226.717 795.728 224.113 797.561 220.74C799.394 217.293 800.311 213.297 800.311 208.75ZM837.357 189.83C839.337 186.383 842.27 183.523 846.157 181.25C850.117 178.903 854.7 177.73 859.907 177.73C865.26 177.73 870.1 179.013 874.427 181.58C878.827 184.147 882.274 187.777 884.767 192.47C887.26 197.09 888.507 202.48 888.507 208.64C888.507 214.727 887.26 220.153 884.767 224.92C882.274 229.687 878.827 233.39 874.427 236.03C870.1 238.67 865.26 239.99 859.907 239.99C854.774 239.99 850.227 238.853 846.267 236.58C842.38 234.233 839.41 231.337 837.357 227.89V267.6H827.347V178.72H837.357V189.83ZM878.277 208.64C878.277 204.093 877.36 200.133 875.527 196.76C873.694 193.387 871.2 190.82 868.047 189.06C864.967 187.3 861.557 186.42 857.817 186.42C854.15 186.42 850.74 187.337 847.587 189.17C844.507 190.93 842.014 193.533 840.107 196.98C838.274 200.353 837.357 204.277 837.357 208.75C837.357 213.297 838.274 217.293 840.107 220.74C842.014 224.113 844.507 226.717 847.587 228.55C850.74 230.31 854.15 231.19 857.817 231.19C861.557 231.19 864.967 230.31 868.047 228.55C871.2 226.717 873.694 224.113 875.527 220.74C877.36 217.293 878.277 213.26 878.277 208.64ZM955.143 178.72V239H945.133V230.09C943.226 233.17 940.55 235.59 937.103 237.35C933.73 239.037 929.99 239.88 925.883 239.88C921.19 239.88 916.973 238.927 913.233 237.02C909.493 235.04 906.523 232.107 904.323 228.22C902.196 224.333 901.133 219.603 901.133 214.03V178.72H911.033V212.71C911.033 218.65 912.536 223.233 915.543 226.46C918.55 229.613 922.656 231.19 927.863 231.19C933.216 231.19 937.433 229.54 940.513 226.24C943.593 222.94 945.133 218.137 945.133 211.83V178.72H955.143ZM982.054 188.51C983.814 185.063 986.308 182.387 989.534 180.48C992.834 178.573 996.831 177.62 1001.52 177.62V187.96H998.884C987.664 187.96 982.054 194.047 982.054 206.22V239H972.044V178.72H982.054V188.51Z" fill="#FF0000"/>
<path d="M345.417 143.917H371.583H345.417ZM312.708 58.875C312.708 46.7303 317.533 35.083 326.12 26.4954C334.708 17.9078 346.355 13.0833 358.5 13.0833C370.645 13.0833 382.292 17.9078 390.88 26.4954C399.467 35.083 404.292 46.7303 404.292 58.875C404.296 66.2479 402.513 73.512 399.095 80.0448C395.677 86.5777 390.726 92.1845 384.667 96.3849L381.121 113.171C380.652 116.265 379.089 119.088 376.716 121.128C374.343 123.169 371.318 124.291 368.188 124.292H348.812C345.682 124.291 342.657 123.169 340.284 121.128C337.911 119.088 336.348 116.265 335.879 113.171L332.333 96.4569C326.272 92.2416 321.321 86.6216 317.903 80.0771C314.486 73.5326 312.703 66.2581 312.708 58.875V58.875Z" stroke="white" stroke-width="2" stroke-linecap="round" stroke-linejoin="round"/>
<path d="M332.333 98.125H384.667" stroke="white" stroke-width="2" stroke-linecap="round" stroke-linejoin="round"/>
</svg>
